<svg width="50" height="70" viewBox="0 0 50 70" fill="none" xmlns="http://www.w3.org/2000/svg">
<path d="M24.079 0.276489C21.3075 1.82396 18.7441 3.98727 17.2087 6.06767C15.27 8.70073 14.1423 11.2864 13.7736 13.9511C13.6695 14.7051 13.6695 16.1973 13.7736 16.9118C14.0165 18.5659 14.5847 20.0146 15.4781 21.2542C16.3109 22.403 17.2521 23.2122 18.6574 23.9741C19.7374 24.5623 20.9041 25.0242 23.0814 25.7348C25.0506 26.3782 26.0742 26.7611 27.2062 27.2783C30.0601 28.577 31.8471 30.0732 32.2505 31.4865C32.3633 31.8733 32.3502 31.8852 32.0553 31.6483C31.6129 31.297 31.2789 31.0641 30.7801 30.768C29.3662 29.9192 27.8178 29.3113 24.5908 28.3362C22.5393 27.7125 21.6241 27.4086 20.3923 26.9309C19.4945 26.5795 18.1065 25.9558 17.534 25.644C17.3085 25.5216 17.109 25.4189 17.0916 25.4189C17.0699 25.4189 17.2651 25.6795 17.5253 25.9992C19.1518 28.0244 20.6048 30.3022 21.3812 32.051C22.3788 34.2972 22.5653 36.1091 21.9234 37.2737C21.5417 37.9645 20.2622 38.379 17.8767 38.5803C16.6492 38.6869 15.5259 38.7225 12.3032 38.7619C8.15678 38.8133 6.85559 38.8685 5.45898 39.0422C4.27924 39.1883 3.35105 39.4607 2.94768 39.7844C2.72648 39.9581 2.60938 40.1989 2.60938 40.4634C2.60938 41.2884 3.81514 42.0187 7.68402 43.5267C9.03292 44.0557 11.4575 44.9321 11.4878 44.9044C11.5008 44.8926 11.4184 44.8452 11.3013 44.8018C9.47966 44.0952 7.49317 43.1754 6.16162 42.4253C5.05127 41.7937 4.09273 41.02 3.82382 40.5384C3.69804 40.3094 3.6937 40.2897 3.75876 40.1989C4.04068 39.8041 5.78862 39.6423 9.28882 39.6817C11.8738 39.7133 14.2117 39.812 19.0044 40.0844C22.1099 40.262 22.8299 40.2857 23.2983 40.2265C24.3306 40.0883 25.198 39.658 26.0004 38.8843C26.1522 38.7343 26.638 38.2093 27.0761 37.7119C27.5141 37.2145 28.0693 36.6302 28.3079 36.4131C29.2968 35.513 30.6544 34.7669 32.1724 34.3011L32.5237 34.1906L32.2028 34.6288C31.7647 35.2249 31.1965 36.2868 30.958 36.946C30.637 37.8303 30.5633 38.2527 30.5633 39.1764C30.5633 39.8515 30.5763 40.0212 30.6587 40.341C30.7845 40.8344 30.8625 41.5569 30.8235 41.9003C30.7454 42.6859 30.5763 42.9938 29.891 43.6215C29.0929 44.3478 28.5334 44.6163 27.6443 44.6834C27.3884 44.7031 25.4236 44.7742 23.2766 44.8413C19.642 44.9558 19.1388 44.9755 19.1865 45.0189C19.1952 45.0268 19.6723 45.0979 20.2405 45.1768C24.4433 45.7532 27.8134 46.5703 30.4332 47.648C32.476 48.4928 33.9507 49.6811 34.8659 51.2285C35.4774 52.2549 35.9892 53.9643 36.2278 55.7762C36.3145 56.4118 36.3275 56.7 36.3275 58.0066C36.3275 59.2817 36.3145 59.6488 36.2278 60.4542C36.102 61.6424 36.089 62.9688 36.1974 63.711C36.3362 64.6544 36.5444 65.29 36.9478 66.0124C37.7632 67.4651 38.8735 68.4915 40.3656 69.1705C41.8229 69.8298 43.8397 70.1495 45.2017 69.9324C46.0995 69.7864 47.0667 69.4034 47.8084 68.8942C49.6257 67.6507 50.3761 65.6453 49.8209 63.5254C49.5303 62.4161 48.9751 61.5398 48.0209 60.6713C47.6913 60.3713 47.3226 60.0791 47.0754 59.9291C46.6416 59.6567 46.4465 59.6094 46.8065 59.8581C47.6826 60.466 48.7539 61.9345 49.0835 62.9806C49.8209 65.3018 48.2985 67.781 45.7178 68.4639C42.9679 69.1863 40.088 67.5994 39.5328 65.0531C39.4114 64.4926 39.4591 63.4465 39.6543 62.4082C39.8451 61.3779 40.114 60.541 40.9077 58.5198C41.5236 56.9487 41.7275 56.3447 41.8836 55.638C42.1005 54.663 42.1092 53.9682 41.9227 52.6181C41.4499 49.1837 40.2832 46.4914 38.249 44.1583C37.8152 43.657 37.221 43.0412 36.3926 42.2319C34.688 40.566 34.1329 39.8594 33.7338 38.8488C33.4389 38.0987 33.3522 37.0526 33.5083 36.1762C33.7468 34.8696 34.0721 33.5787 34.3584 32.8286C34.7141 31.8812 35.048 31.3009 35.8982 30.1364C36.9304 28.7231 37.6504 27.906 38.7347 26.9151C39.5024 26.2203 39.9492 25.8769 40.9381 25.2295C41.6494 24.7597 41.8706 24.5544 42.1135 24.1241C42.4041 23.6188 42.5516 23.0622 42.6253 22.2016L42.6557 21.8463L42.7337 22.0042C43.033 22.6161 43.1458 23.4017 43.0113 23.9386C42.8118 24.7557 42.248 25.3716 40.5174 26.6624C39.5892 27.3533 38.6567 28.1586 38.249 28.6165C37.6374 29.3074 37.182 30.0574 36.8177 30.9851C35.755 33.6655 35.8851 35.9867 37.195 37.7711C38.1969 39.137 39.9102 40.1278 41.9443 40.5147C42.647 40.6489 43.1761 40.6963 44.0046 40.6963C45.7959 40.6963 46.8108 40.3884 47.7737 39.5554C48.858 38.6119 49.5476 37.0881 49.8209 35.0275C49.9076 34.3959 49.9553 32.7615 49.8946 32.5444L49.8512 32.3865L49.8469 32.5523C49.8252 33.4011 49.3611 35.1814 48.8667 36.2947C48.4416 37.2618 48.0252 37.8816 47.4874 38.3553C46.7934 38.9672 46.2556 39.0777 45.2667 38.8211C44.1997 38.5409 43.4277 37.9724 42.9679 37.1237C42.6904 36.6105 42.5949 36.267 42.5689 35.6788C42.5429 35.1222 42.5863 34.8222 42.7554 34.3524C43.0937 33.4326 43.6966 32.6471 45.193 31.1667C46.7501 29.6271 47.1838 29.0271 47.6219 27.7875C48.1207 26.3861 48.3202 25.2018 48.3549 23.4333C48.3809 22.1345 48.3419 21.4871 48.1684 20.5634C47.8084 18.6251 47.0927 17.1881 45.9824 16.1815C44.3515 14.7011 42.4171 14.255 40.3656 14.8867C39.5024 15.1512 38.5439 15.6841 37.7979 16.3197C37.208 16.8171 36.8697 17.2237 36.5574 17.8C36.3145 18.2461 36.2538 18.329 35.8982 18.6527C35.6856 18.8461 35.3213 19.1501 35.0957 19.3238C34.5709 19.7265 34.5666 19.7699 34.983 20.1686C35.1391 20.3226 35.2823 20.4923 35.2953 20.5515C35.3517 20.741 35.2259 21.2384 34.9179 22.0635C34.5709 23.0069 34.5492 23.153 34.7444 23.3978C34.9092 23.603 35.2953 23.7767 35.7897 23.8636C36.0933 23.9188 36.3145 23.9267 37.0909 23.907C37.6027 23.8912 38.0798 23.8715 38.1492 23.8557L38.275 23.828L38.1709 23.9939C38.0408 24.207 37.5203 24.7281 37.0345 25.1347C35.7333 26.2282 34.1199 27.1756 32.9401 27.5388C31.7257 27.9099 30.5936 27.6691 29.0235 26.7098C28.4337 26.3466 27.5445 25.5453 27.3407 25.1979C27.0978 24.7715 26.8679 23.6346 26.9113 23.0701C26.946 22.6438 27.0414 22.4148 27.2496 22.2411C27.4578 22.0714 27.5402 22.0714 27.9479 22.2174C28.451 22.399 29.4486 22.6832 29.8129 22.7503C30.225 22.8293 30.585 22.8293 30.7715 22.7582C31.2833 22.5648 31.7994 21.5226 32.0596 20.1489C32.1767 19.5567 32.1767 19.5567 32.7189 19.3001C32.9011 19.2133 33.0616 19.1106 33.0746 19.0712C33.1179 18.9488 33.0269 18.7593 32.7189 18.3251C32.4673 17.9658 32.1507 17.4487 31.743 16.7263C31.6433 16.5486 31.5912 16.2604 31.6606 16.2604C31.6866 16.2604 31.8384 16.1499 31.9946 16.0196C32.6148 15.4907 33.1483 14.5393 33.5777 13.205C33.7555 12.6444 34.0765 11.2943 34.0374 11.2588C34.0288 11.2509 33.7685 11.2785 33.4606 11.322C32.1898 11.5075 30.8452 11.5865 29.9994 11.5233C29.3965 11.4799 29.0929 11.4285 28.2645 11.2312C27.6443 11.0812 26.8896 11.0219 26.304 11.0812C25.0419 11.2035 24.0964 11.6259 23.1422 12.4865C22.5306 13.0431 22.2747 13.3589 21.9537 13.9511C21.507 14.7643 21.3465 15.4472 21.3465 16.5052C21.3465 17.579 21.4723 18.2698 21.9624 19.8212C22.1099 20.2949 22.214 20.6936 22.1966 20.7094C22.1793 20.7292 22.0058 20.7371 21.8106 20.7371C20.7566 20.7213 19.7981 19.991 19.013 18.6053C18.1933 17.1487 17.6685 15.2183 17.5817 13.3353C17.4429 10.3982 18.2453 7.32695 19.8285 4.7531C20.9605 2.91351 22.7475 1.12917 24.4347 0.154114C24.5821 0.0672607 24.6776 -0.00379181 24.6429 0.000152588C24.6082 0.000152588 24.3523 0.12648 24.079 0.276489Z" fill="#585555"/>
<path d="M27.8152 0.1742C27.8326 0.189992 28.1145 0.30843 28.4441 0.434764C31.1202 1.48492 34.0653 3.15489 36.5028 5.00648C37.9645 6.11979 38.6021 6.84621 39.6821 8.60699C40.4758 9.90192 41.2001 11.5522 41.6426 13.084C41.7206 13.3445 41.7857 13.5617 41.79 13.5656C41.7944 13.5735 41.9679 13.5222 42.176 13.459C42.8223 13.2616 43.23 13.2063 44.0714 13.2063C44.6136 13.2103 44.9216 13.2261 45.1514 13.2735C45.3293 13.309 45.4811 13.3327 45.4897 13.3248C45.5158 13.3011 45.0864 12.4207 44.722 11.7614C43.6421 9.79532 42.2758 8.05823 40.5843 6.49485C37.7477 3.87342 33.9265 1.78496 29.9015 0.647953C29.021 0.395285 27.7458 0.107085 27.8152 0.1742Z" fill="#585555"/>
<path d="M17.6368 46.7696C17.511 46.809 17.1814 47.0341 16.1057 47.8158C14.154 49.241 12.059 51.0215 10.6538 52.4546C8.30294 54.8509 5.26249 58.8975 2.83794 62.8534C2.65143 63.1573 2.5083 63.4061 2.51698 63.414C2.52565 63.4179 2.7295 63.5561 2.97239 63.7219C4.2172 64.5589 5.21044 64.9773 6.555 65.226C7.1709 65.3405 8.03836 65.459 8.10776 65.4392C8.13378 65.4313 8.28992 65.0523 8.45908 64.5983C9.40027 62.0085 10.8836 59.1976 12.3757 57.1763C13.1911 56.0748 13.9154 55.2615 14.8262 54.4325C17.151 52.3124 19.8792 51.053 22.8719 50.7175C23.5139 50.6425 24.9755 50.6543 25.6044 50.7372C28.3977 51.1004 30.7702 52.2532 32.427 54.0574C33.3335 55.0444 34.0448 56.3433 34.3051 57.4881C34.3484 57.6776 34.3918 57.8474 34.4048 57.8592C34.4525 57.9027 34.4308 57.2039 34.3658 56.7065C34.0145 53.9745 32.4357 51.6294 29.9114 50.0819C29.2955 49.7068 28.1418 49.1186 27.2092 48.704C25.0493 47.7486 22.9587 47.1446 20.7727 46.8446C20.3173 46.7854 19.9009 46.7617 18.9684 46.7498C18.3004 46.7419 17.7019 46.7498 17.6368 46.7696Z" fill="#585555"/>
<path d="M20.2341 54.4245C18.6943 54.8429 17.0461 56.5642 15.2505 59.6356C15.0423 59.987 14.4481 61.0648 13.9233 62.0241C12.917 63.8796 12.557 64.4994 12.0235 65.289C11.1648 66.5641 10.1845 67.4998 9.34743 67.8353C8.88334 68.0248 8.61443 68.0643 7.98118 68.0406C7.10938 68.009 6.10313 67.7564 4.74989 67.2353C3.59183 66.7891 1.58366 65.814 0.425598 65.135C0.204396 65.0047 0.0135544 64.91 0.000542503 64.9179C-0.0341559 64.9534 1.60535 66.4023 2.12582 66.797C4.35953 68.4788 6.42409 69.4618 8.18503 69.675C9.88092 69.8803 11.2645 69.1065 12.7652 67.105C13.585 66.0114 14.4351 64.5152 15.8317 61.7162C17.5449 58.2815 18.3994 56.884 19.3449 55.9602C19.7093 55.6088 20.195 55.2772 20.5767 55.1232C21.301 54.8311 22.0991 54.835 22.741 55.1272C22.8581 55.1825 22.9666 55.214 22.9796 55.2022C23.062 55.1272 22.329 54.6574 21.8519 54.4797C21.4875 54.3416 20.6418 54.3139 20.2341 54.4245Z" fill="#585555"/>
</svg>
