<svg width="16" height="16" viewBox="0 0 16 16" fill="none" xmlns="http://www.w3.org/2000/svg">
<path d="M15.9375 7.96875C15.9375 12.3702 12.3702 15.9375 7.96875 15.9375C3.56726 15.9375 0 12.3702 0 7.96875C0 3.56726 3.56726 0 7.96875 0C12.3702 0 15.9375 3.56726 15.9375 7.96875ZM8.28937 1.50192L7.23724 2.29102C7.07227 2.41646 6.97266 2.61319 6.97266 2.82237V3.10408C6.97266 3.31512 7.14386 3.48633 7.35553 3.48633C7.43024 3.48633 7.50494 3.46454 7.5672 3.42096L8.86835 2.55436C8.9306 2.51265 9.00531 2.49023 9.08002 2.49023H9.11115C9.30414 2.49023 9.46289 2.64805 9.46289 2.84229C9.46289 2.93567 9.42554 3.02532 9.36017 3.09131L8.74072 3.71045C8.56018 3.86298 8.33917 4.02795 8.09949 4.10577L7.27148 4.38281C7.09406 4.44196 6.97266 4.61005 6.97266 4.79993C6.97266 4.9151 6.92596 5.02716 6.84503 5.10809L6.28473 5.6684C6.08862 5.8645 5.97656 6.13531 5.97656 6.41547V6.5462C5.97656 7.0567 6.3999 7.4707 6.90729 7.4707C7.24969 7.4707 7.5672 7.27771 7.71973 6.97266L7.84424 6.72052C7.92206 6.57111 8.07458 6.47461 8.24268 6.47461C8.38586 6.47461 8.5166 6.53998 8.60065 6.65204L9.10803 7.33063C9.1734 7.41779 9.27924 7.4707 9.3913 7.4707C9.65277 7.4707 9.82397 7.19366 9.70569 6.96021L9.67145 6.88861C9.55939 6.67072 9.67145 6.40613 9.90179 6.32831L10.5617 6.1073C10.7983 6.02948 10.957 5.80847 10.957 5.55945C10.957 5.23883 11.2154 4.98047 11.536 4.98047H12.4512C12.7251 4.98047 12.9492 5.20459 12.9492 5.47852C12.9492 5.75244 12.7251 5.97656 12.4512 5.97656H11.8068C11.5827 5.97656 11.3648 6.06683 11.2061 6.22559L11.0598 6.37189C10.9944 6.43726 10.957 6.52753 10.957 6.62091C10.957 6.8139 11.1158 6.97266 11.3088 6.97266H11.6605C11.8473 6.97266 12.0278 7.04736 12.1586 7.1781L12.364 7.38354C12.392 7.41156 12.4512 7.51428 12.4512 7.59521C12.4512 7.67615 12.392 7.75085 12.364 7.80688L12.1306 8.04034C12.0154 8.1275 11.9531 8.30804 11.9531 8.4668C11.9531 8.62555 12.0154 8.77808 12.1306 8.89325L12.7002 9.46289C13.0177 9.7804 13.4504 9.96094 13.9017 9.96094H14.1041C14.3344 9.33215 14.4434 8.6629 14.4434 7.96875C14.4434 4.5011 11.7166 1.6697 8.28937 1.50192ZM13.6465 11.0847C13.5313 11.0037 13.3912 10.957 13.2418 10.957C13.0551 10.957 12.8745 10.8823 12.7438 10.7516L12.2986 10.3065C12.087 10.0948 11.7632 9.96094 11.4271 9.96094C11.1251 9.96094 10.8294 9.85199 10.5991 9.65588L9.74615 8.94617C9.41309 8.638 8.95239 8.43878 8.47614 8.43878H7.82556C7.43024 8.43878 7.04736 8.58197 6.72052 8.79987L5.86761 9.36951C5.31354 9.73993 4.98047 10.3625 4.98047 11.0286V11.1282C4.98047 11.6574 5.18903 12.1617 5.56256 12.5352L6.06061 13.0333C6.3252 13.2979 6.68317 13.4473 7.0567 13.4473H7.71973C8.13373 13.4473 8.4668 13.7803 8.4668 14.1943C8.4668 14.2722 8.47925 14.35 8.50104 14.4216C10.7236 14.241 12.6255 12.9399 13.6465 11.0847ZM5.12677 3.13458L4.13068 4.13068C3.93457 4.32367 3.93457 4.64117 4.13068 4.83417C4.32367 5.03027 4.64117 5.03027 4.83417 4.83417L5.83026 3.83807C6.02637 3.64508 6.02637 3.32758 5.83026 3.13458C5.63727 2.93972 5.31976 2.93972 5.12677 3.13458Z" fill="#949393"/>
</svg>
